<svg width="338" height="378" viewBox="0 0 338 378" fill="none" xmlns="http://www.w3.org/2000/svg">
<g filter="url(#filter0_d_1630_242)">
<path d="M83.0775 361.818V369.818C85.2672 369.818 87.3612 368.921 88.8712 367.335C90.3811 365.749 91.1751 363.614 91.0679 361.427L83.0775 361.818ZM270.312 361.817L262.313 361.93C262.374 366.304 265.938 369.817 270.312 369.817V361.817ZM294.583 369.817C299.001 369.817 302.583 366.235 302.583 361.817C302.583 357.399 299.001 353.817 294.583 353.817V369.817ZM57.0727 353.818C52.6544 353.818 49.0727 357.4 49.0727 361.818C49.0727 366.237 52.6544 369.818 57.0727 369.818V353.818ZM308 211L311.383 218.249L308 211ZM320.092 224.394C323.071 227.657 328.131 227.887 331.394 224.908C334.657 221.929 334.887 216.869 331.908 213.606L320.092 224.394ZM4 207.5C4.00005 211.918 7.58182 215.5 12.0001 215.5C16.4184 215.5 20.0001 211.918 20 207.5L4 207.5ZM91.0679 361.427C88.3511 305.996 87.8758 234.456 98.5718 175.689C103.926 146.27 111.975 120.68 123.497 102.007C134.919 83.495 149.316 72.3947 167.609 70.1702L165.677 54.2872C141.148 57.2701 123.007 72.3313 109.88 93.6052C96.8536 114.718 88.3426 142.538 82.8304 172.824C71.793 233.467 72.3572 306.514 75.0871 362.21L91.0679 361.427ZM167.609 70.1702C185.37 68.0104 199.891 75.9123 212.322 92.5807C224.972 109.544 234.783 134.861 242.19 165.094C256.967 225.405 261.469 302.163 262.313 361.93L278.311 361.704C277.464 301.665 272.954 223.422 257.73 161.286C250.137 130.296 239.7 102.529 225.148 83.0155C210.375 63.2071 190.738 51.2398 165.677 54.2872L167.609 70.1702ZM265.746 235.319C255.941 230.506 242.01 227.177 226.564 225.015C210.95 222.829 193.149 221.75 175.212 221.75C139.674 221.75 102.231 225.987 79.9258 235.094L85.9736 249.906C105.306 242.013 140.183 237.75 175.212 237.75C192.56 237.75 209.604 238.796 224.345 240.86C239.253 242.948 251.184 245.994 258.696 249.681L265.746 235.319ZM270.312 369.817H294.583V353.817H270.312V369.817ZM83.0775 353.818H57.0727V369.818H83.0775V353.818ZM258.696 249.681C268.41 254.45 277.08 255.805 284.721 253.185C292.251 250.602 296.909 244.779 300.026 239.513C302.959 234.559 305.564 228.087 307.347 224.391C308.376 222.259 309.255 220.702 310.077 219.597C310.899 218.493 311.356 218.262 311.383 218.249L304.617 203.751C301.34 205.28 298.971 207.72 297.241 210.046C295.512 212.37 294.114 215 292.937 217.437C290.31 222.882 288.789 227.087 286.258 231.362C283.912 235.325 281.767 237.283 279.531 238.05C277.407 238.778 273.349 239.05 265.746 235.319L258.696 249.681ZM311.383 218.249C310.956 218.449 310.9 218.213 311.767 218.462C312.671 218.722 313.889 219.328 315.295 220.29C316.65 221.217 317.882 222.269 318.797 223.119C319.245 223.535 319.596 223.883 319.823 224.115C319.936 224.23 320.018 224.316 320.064 224.364C320.087 224.389 320.101 224.404 320.106 224.409C320.108 224.412 320.109 224.412 320.106 224.41C320.105 224.408 320.103 224.406 320.101 224.404C320.1 224.403 320.098 224.401 320.097 224.4C320.096 224.399 320.095 224.397 320.095 224.397C320.093 224.396 320.092 224.394 326 219C331.908 213.606 331.907 213.604 331.905 213.603C331.905 213.602 331.903 213.601 331.902 213.599C331.9 213.597 331.898 213.595 331.895 213.592C331.89 213.587 331.885 213.581 331.879 213.574C331.866 213.56 331.851 213.544 331.833 213.525C331.798 213.487 331.752 213.438 331.697 213.379C331.585 213.261 331.434 213.103 331.245 212.91C330.869 212.527 330.341 212.004 329.687 211.397C328.399 210.2 326.538 208.595 324.33 207.085C322.173 205.609 319.36 203.997 316.186 203.085C312.975 202.162 308.794 201.801 304.617 203.751L311.383 218.249ZM79.9258 235.094C71.0365 238.723 65.6938 237.979 62.1545 236.284C58.224 234.403 54.8586 230.58 51.4944 224.996C49.8465 222.261 48.3439 219.36 46.7855 216.325C45.2803 213.395 43.6671 210.227 41.9707 207.422C38.9978 202.507 33.6869 195 24.4999 195V211C24.5012 211 24.4959 211 24.4855 210.999C24.475 210.998 24.4632 210.996 24.4512 210.994C24.4243 210.988 24.4172 210.983 24.4363 210.991C24.4774 211.009 24.6802 211.104 25.0433 211.421C25.8512 212.126 26.9126 213.442 28.2802 215.703C29.6269 217.929 30.9644 220.543 32.553 223.635C34.0883 226.625 35.8225 229.989 37.7898 233.254C41.656 239.67 47.0349 246.785 55.2457 250.716C63.8478 254.834 74.0438 254.777 85.9736 249.906L79.9258 235.094ZM24.4999 195C17.53 195 12.4244 196.211 8.88801 198.758C7.0312 200.095 5.7299 201.72 4.93554 203.436C4.55108 204.266 4.31557 205.053 4.17736 205.75C4.10855 206.097 4.06423 206.419 4.03712 206.712C4.02356 206.858 4.01428 206.998 4.00839 207.129C4.00545 207.195 4.00335 207.259 4.00199 207.321C4.00131 207.351 4.00081 207.382 4.00048 207.412C4.00032 207.427 4.0002 207.442 4.00012 207.456C4.00008 207.464 4.00004 207.475 4.00003 207.478C4.00001 207.489 4 207.5 12 207.5C20 207.5 20 207.511 20 207.522C20 207.525 19.9999 207.536 19.9999 207.543C19.9998 207.558 19.9997 207.572 19.9995 207.587C19.9992 207.615 19.9987 207.644 19.9981 207.673C19.9968 207.73 19.9949 207.788 19.9924 207.845C19.9872 207.959 19.9795 208.073 19.969 208.187C19.948 208.414 19.9159 208.64 19.8715 208.864C19.7821 209.314 19.6442 209.749 19.4551 210.158C19.0513 211.03 18.5313 211.53 18.2369 211.742C17.8255 212.039 18.9699 211 24.4999 211V195Z" fill="#404040"/>
</g>
<path d="M166.5 167C155.5 169.5 151.5 185.5 166.5 193C181.5 200.5 180 167 166.5 167Z" fill="#404040"/>
<path d="M137.945 122.792L134.001 151.659M197.107 122.792V151.659M166.5 167C155.5 169.5 151.5 185.5 166.5 193C181.5 200.5 180 167 166.5 167Z" stroke="#404040" stroke-width="10" stroke-linecap="round"/>
<path d="M256.5 33.9999C256.833 26.9999 261.4 12.1999 277 8.99989C296.5 4.99989 303.5 22.9999 302.5 33.9999C301.5 44.9999 294 48.5 285.5 62.5C278.7 73.7 282.667 85.5 285.5 90M295.5 111.5C292.531 114.328 292.863 118.86 295.5 122C298.062 125.049 302.133 126.128 305.5 124C309.627 121.392 309.312 114.549 305.5 111.5C302.451 109.06 298.328 108.807 295.5 111.5Z" stroke="#404040" stroke-width="15" stroke-linecap="round"/>
<defs>
<filter id="filter0_d_1630_242" x="0" y="53.8157" width="338" height="324.003" filterUnits="userSpaceOnUse" color-interpolation-filters="sRGB">
<feFlood flood-opacity="0" result="BackgroundImageFix"/>
<feColorMatrix in="SourceAlpha" type="matrix" values="0 0 0 0 0 0 0 0 0 0 0 0 0 0 0 0 0 0 127 0" result="hardAlpha"/>
<feOffset dy="4"/>
<feGaussianBlur stdDeviation="2"/>
<feComposite in2="hardAlpha" operator="out"/>
<feColorMatrix type="matrix" values="0 0 0 0 0 0 0 0 0 0 0 0 0 0 0 0 0 0 0.25 0"/>
<feBlend mode="normal" in2="BackgroundImageFix" result="effect1_dropShadow_1630_242"/>
<feBlend mode="normal" in="SourceGraphic" in2="effect1_dropShadow_1630_242" result="shape"/>
</filter>
</defs>
</svg>
