<svg width="347" height="226" viewBox="0 0 347 226" fill="none" xmlns="http://www.w3.org/2000/svg">
<path d="M106.39 213.587C106.715 220.207 112.344 225.31 118.963 224.986C125.583 224.661 130.686 219.032 130.361 212.413L106.39 213.587ZM223.379 213.169C223.473 219.796 228.921 225.092 235.547 224.999C242.174 224.905 247.47 219.457 247.377 212.831L223.379 213.169ZM130.361 212.413C128.816 180.891 129.562 133.408 136.651 93.4051C140.21 73.3238 145.227 55.9665 151.832 43.5773C158.532 31.011 165.505 25.912 172.15 25.1039L169.253 1.27941C151.198 3.47499 138.888 16.8414 130.654 32.2868C122.325 47.9092 116.76 68.1099 113.019 89.2173C105.51 131.592 104.793 181.009 106.39 213.587L130.361 212.413ZM172.15 25.1039C177.719 24.4267 184.106 27.1558 191.387 38.6004C198.608 49.9523 204.687 67.0868 209.517 87.6702C219.117 128.577 222.898 179.085 223.379 213.169L247.377 212.831C246.883 177.809 243.026 125.41 232.882 82.1867C227.841 60.7052 221.021 40.4695 211.636 25.7183C202.311 11.0598 188.385 -1.04707 169.253 1.27941L172.15 25.1039ZM308.542 147.823C324.928 147.823 337.406 137.212 342.837 125.129C348.288 113.001 347.718 96.1137 333.374 85.9885L319.534 105.596C321.822 107.211 323.171 110.339 320.946 115.291C318.7 120.288 313.907 123.823 308.542 123.823V147.823ZM333.374 85.9885C321.01 77.2612 307.762 77.8936 297.364 83.6238C287.696 88.9523 280.644 98.4989 277.83 108.157L300.872 114.871C302.034 110.884 305.218 106.699 308.949 104.643C311.951 102.988 315.265 102.583 319.534 105.596L333.374 85.9885ZM277.83 108.157C276.447 112.906 277.223 117.789 278.175 121.252C279.228 125.088 281.017 129.059 283.389 132.688C287.832 139.486 296.292 147.823 308.542 147.823V123.823C307.998 123.823 305.91 123.278 303.479 119.558C302.414 117.928 301.684 116.231 301.318 114.895C301.137 114.238 301.089 113.83 301.08 113.689C301.067 113.483 301.136 113.964 300.872 114.871L277.83 108.157ZM288.905 99.5224C248 101.046 200.218 102.451 157.88 100.836C136.712 100.028 117.15 98.4733 100.635 95.8601C83.8755 93.2081 71.28 89.6145 63.3755 85.2738L51.8232 106.31C63.4191 112.678 79.3169 116.785 96.8844 119.565C114.697 122.384 135.297 123.992 156.965 124.819C200.302 126.472 248.895 125.029 289.798 123.506L288.905 99.5224ZM69.1978 92.7138C65.1369 77.4136 49.4979 69.0622 36.572 67.8123C29.6116 67.1392 21.8147 68.2499 15.0412 72.5657C7.98236 77.0632 3.17105 84.3352 1.47601 93.6419L25.0876 97.9423C25.6891 94.6396 26.9838 93.414 27.9376 92.8063C29.1767 92.0168 31.2992 91.4144 34.262 91.7009C37.2077 91.9857 40.2035 93.0957 42.5035 94.6957C44.835 96.3177 45.747 97.9139 46.0009 98.8705L69.1978 92.7138ZM1.47601 93.6419C-0.559727 104.819 4.09905 114.025 11.1853 119.924C17.8435 125.467 26.5669 128.191 34.6699 128.619C42.7265 129.044 51.9836 127.278 59.2286 121.581C67.1492 115.353 71.084 105.631 69.4848 94.1384L45.7138 97.4459C46.227 101.134 45.1042 102.156 44.3936 102.715C43.0074 103.805 40.0599 104.87 35.9349 104.652C31.8563 104.437 28.4211 103.044 26.5403 101.479C25.0875 100.269 24.8268 99.3744 25.0876 97.9423L1.47601 93.6419Z" fill="url(#paint0_linear_1387_550)" fill-opacity="0.6"/>
<g filter="url(#filter0_d_1387_550)">
<path d="M113.382 213.245C113.517 216.003 115.862 218.129 118.621 217.994C121.379 217.859 123.505 215.513 123.37 212.755L113.382 213.245ZM230.379 213.071C230.418 215.832 232.688 218.038 235.449 218C238.21 217.961 240.417 215.691 240.378 212.929L230.379 213.071ZM123.37 212.755C121.81 180.926 122.547 132.878 129.759 92.1836C133.37 71.803 138.548 53.6165 145.655 40.2842C152.802 26.8782 161.332 19.3679 171.305 18.1551L170.098 8.22822C155.371 10.0191 144.617 20.9742 136.831 35.5798C129.005 50.2592 123.599 69.6306 119.912 90.4387C112.525 132.122 111.8 180.975 113.382 213.245L123.37 212.755ZM171.305 18.1551C180.83 16.9969 189.416 22.4612 197.293 34.8431C205.145 47.1865 211.44 65.2255 216.332 86.0708C226.091 127.653 229.894 178.713 230.379 213.071L240.378 212.929C239.887 178.181 236.053 126.333 226.068 83.786C221.088 62.5665 214.484 43.2353 205.73 29.4756C197.001 15.7545 185.274 6.38279 170.098 8.22822L171.305 18.1551ZM308.542 140.823C321.713 140.823 331.95 132.276 336.452 122.26C340.962 112.224 340.165 99.3504 329.337 91.7073L323.571 99.877C329.375 103.974 330.497 111.116 327.331 118.16C324.156 125.224 317.121 130.823 308.542 130.823V140.823ZM329.337 91.7073C319.335 84.6466 308.983 85.2129 300.743 89.7544C292.806 94.1285 286.883 102.111 284.551 110.115L294.152 112.913C295.795 107.271 300.107 101.523 305.57 98.5124C310.729 95.6691 316.941 95.1972 323.571 99.877L329.337 91.7073ZM284.551 110.115C283.696 113.049 284.114 116.447 284.925 119.398C285.778 122.504 287.258 125.812 289.248 128.858C293.104 134.759 299.707 140.823 308.542 140.823V130.823C304.584 130.823 300.637 128.005 297.619 123.388C296.173 121.175 295.135 118.814 294.568 116.749C293.958 114.529 294.053 113.252 294.152 112.913L284.551 110.115ZM289.165 106.518C248.261 108.041 200.242 109.457 157.613 107.831C136.299 107.018 116.435 105.447 99.5414 102.774C82.5459 100.085 68.9872 96.3415 60.0061 91.4095L55.1926 100.175C65.7119 105.951 80.6465 109.909 97.9784 112.651C115.413 115.41 135.71 117.003 157.232 117.824C200.277 119.466 248.634 118.034 289.537 116.511L289.165 106.518ZM62.432 94.5095C59.382 83.0178 47.0726 75.8603 35.8982 74.7798C30.1038 74.2195 23.962 75.1819 18.8026 78.4692C13.5244 81.8322 9.73882 87.3407 8.36272 94.8962L18.2009 96.688C19.1214 91.6341 21.4417 88.645 24.1762 86.9028C27.0295 85.0848 30.807 84.3341 34.9357 84.7334C43.6079 85.5719 51.1607 91.0239 52.7666 97.0748L62.432 94.5095ZM8.36272 94.8962C6.84467 103.231 10.2207 110.013 15.6638 114.544C20.9286 118.927 28.1096 121.263 35.0388 121.628C41.9487 121.993 49.3656 120.432 54.9017 116.078C60.7194 111.504 63.834 104.32 62.5516 95.1031L52.647 96.4812C53.477 102.446 51.534 106.005 48.7205 108.218C45.6255 110.651 40.8377 111.921 35.566 111.642C30.3136 111.365 25.336 109.584 22.0617 106.858C18.9659 104.281 17.4224 100.963 18.2009 96.688L8.36272 94.8962Z" fill="#404040"/>
</g>
<path d="M154.148 48.1255L151.873 64.7762M188.274 48.1255V64.7762M160.324 80.4474C164.765 83.277 175.534 87.2383 183.074 80.4474" stroke="#404040" stroke-width="6" stroke-linecap="round"/>
<defs>
<filter id="filter0_d_1387_550" x="3.99825" y="7.99658" width="339.042" height="218.003" filterUnits="userSpaceOnUse" color-interpolation-filters="sRGB">
<feFlood flood-opacity="0" result="BackgroundImageFix"/>
<feColorMatrix in="SourceAlpha" type="matrix" values="0 0 0 0 0 0 0 0 0 0 0 0 0 0 0 0 0 0 127 0" result="hardAlpha"/>
<feOffset dy="4"/>
<feGaussianBlur stdDeviation="2"/>
<feComposite in2="hardAlpha" operator="out"/>
<feColorMatrix type="matrix" values="0 0 0 0 0 0 0 0 0 0 0 0 0 0 0 0 0 0 0.25 0"/>
<feBlend mode="normal" in2="BackgroundImageFix" result="effect1_dropShadow_1387_550"/>
<feBlend mode="normal" in="SourceGraphic" in2="effect1_dropShadow_1387_550" result="shape"/>
</filter>
<linearGradient id="paint0_linear_1387_550" x1="13" y1="113" x2="334.052" y2="113" gradientUnits="userSpaceOnUse">
<stop stop-color="#FF6666"/>
<stop offset="0.166667" stop-color="#F78E61"/>
<stop offset="0.336805" stop-color="#FFC83B"/>
<stop offset="0.498264" stop-color="#78D968"/>
<stop offset="0.65625" stop-color="#58D0E0"/>
<stop offset="0.828125" stop-color="#588EE0"/>
<stop offset="0.994792" stop-color="#C370E9"/>
</linearGradient>
</defs>
</svg>
