<svg width="388" height="226" viewBox="0 0 388 226" fill="none" xmlns="http://www.w3.org/2000/svg">
<path d="M83.378 169.91C83.7025 176.53 89.3316 181.633 95.9511 181.308C102.571 180.984 107.674 175.355 107.349 168.735L83.378 169.91ZM174.816 169.492C174.909 176.119 180.357 181.415 186.984 181.322C193.61 181.228 198.907 175.78 198.813 169.154L174.816 169.492ZM208.554 89.4575C206.763 83.0766 200.138 79.3557 193.757 81.1466C187.376 82.9374 183.656 89.5619 185.446 95.9428L208.554 89.4575ZM208.661 169.323L199.367 161.732L199.367 161.732L208.661 169.323ZM250.173 171.351C251.293 177.883 257.496 182.27 264.028 181.15C270.561 180.03 274.948 173.826 273.827 167.294L250.173 171.351ZM314.22 77.7115L322.386 68.9185C322.269 68.8098 322.15 68.7035 322.029 68.5996L314.22 77.7115ZM279.789 108.334L288.666 100.259L279.789 108.334ZM307.479 211.939L310.27 223.609L307.479 211.939ZM343.043 149.674L345.594 137.948L345.594 137.948L343.043 149.674ZM375.63 102.976C372.671 97.0458 365.465 94.6371 359.535 97.596C353.605 100.555 351.196 107.761 354.155 113.691L375.63 102.976ZM107.349 168.735C106.147 144.213 106.733 107.311 112.228 76.303C114.99 60.7192 118.852 47.463 123.826 38.1325C128.895 28.6249 133.763 25.5421 137.711 25.062L134.814 1.23755C119.456 3.10516 109.251 14.4552 102.648 26.842C95.9499 39.4057 91.54 55.5053 88.5966 72.1152C82.6813 105.495 82.1243 144.331 83.378 169.91L107.349 168.735ZM137.711 25.062C140.583 24.7128 144.751 25.8219 150.219 34.4163C155.627 42.9179 160.297 55.9718 164.05 71.962C171.494 103.682 174.441 142.954 174.816 169.492L198.813 169.154C198.426 141.678 195.403 100.515 187.415 66.4785C183.451 49.5903 178.04 33.4351 170.469 21.5342C162.957 9.72597 151.249 -0.760949 134.814 1.23755L137.711 25.062ZM185.446 95.9428C188.121 105.474 192.561 122.276 195.52 137.549C197.009 145.231 198.048 152.155 198.366 157.43C198.527 160.089 198.478 161.94 198.338 163.077C198.147 164.641 197.964 163.449 199.367 161.732L217.955 176.914C220.984 173.206 221.825 168.73 222.16 165.996C222.548 162.834 222.527 159.373 222.323 155.984C221.911 149.163 220.645 141.049 219.082 132.984C215.94 116.764 211.298 99.2354 208.554 89.4575L185.446 95.9428ZM199.367 161.732C199.596 161.451 200.417 160.478 201.917 159.605C203.558 158.65 206.552 157.55 210.2 158.443C213.702 159.3 215.718 161.492 216.607 162.733C217.479 163.95 217.82 164.986 217.918 165.3C218.16 166.075 217.858 165.374 218.015 162.067C218.286 156.373 219.667 147.365 222.385 137.884C225.126 128.329 228.952 119.26 233.615 112.85C238.32 106.383 242.489 104.366 246 104.366V80.3665C231.602 80.3665 221.132 89.2134 214.208 98.7307C207.242 108.305 202.449 120.342 199.315 131.269C196.16 142.272 194.414 153.125 194.042 160.926C193.879 164.368 193.877 168.824 195.007 172.447C195.327 173.472 195.927 175.076 197.094 176.706C198.277 178.359 200.625 180.808 204.494 181.755C208.509 182.737 211.906 181.56 213.985 180.35C215.924 179.223 217.218 177.816 217.955 176.914L199.367 161.732ZM246 104.366C247.645 104.366 248.13 104.725 248.148 104.737C248.204 104.774 248.616 105.043 249.163 106.209C250.484 109.023 251.285 114.142 251.246 122.038C251.207 129.711 250.448 137.92 249.868 146.665C249.329 154.797 248.896 163.907 250.173 171.351L273.827 167.294C273.104 163.077 273.253 156.737 273.816 148.253C274.338 140.382 275.202 130.81 275.245 122.159C275.288 113.732 274.63 103.984 270.889 96.0131C268.906 91.7867 265.886 87.6833 261.353 84.6964C256.782 81.6842 251.519 80.3665 246 80.3665V104.366ZM270.912 116.408C277.211 123.333 286.017 125.222 293.398 124.856C300.872 124.486 308.478 121.818 314.76 117.573C321.032 113.335 326.874 106.892 329.301 98.3747C331.846 89.4414 330.149 79.8969 324.179 71.0167L304.261 84.4063C306.792 88.1703 306.594 90.484 306.22 91.7985C305.727 93.5287 304.23 95.7232 301.322 97.688C298.426 99.6456 295.014 100.746 292.21 100.885C290.853 100.953 289.896 100.783 289.321 100.592C289.045 100.5 288.879 100.411 288.792 100.356C288.71 100.305 288.678 100.272 288.666 100.259L270.912 116.408ZM306.054 86.5045C309.504 89.7085 313.765 97.5682 317.11 109.93C320.312 121.762 322.199 135.94 322.253 149.785C322.308 163.743 320.496 176.535 316.901 185.941C313.234 195.538 308.722 199.303 304.687 200.268L310.27 223.609C325.44 219.981 334.373 207.457 339.321 194.507C344.341 181.368 346.314 165.356 346.253 149.691C346.191 133.914 344.062 117.651 340.277 103.661C336.634 90.2012 330.936 76.8587 322.386 68.9185L306.054 86.5045ZM304.687 200.268C300.082 201.369 297.668 200.985 296.716 200.671C296.054 200.453 295.889 200.245 295.689 199.858C294.863 198.26 294.226 193.175 297.599 185.378C304.14 170.255 320.325 157.011 340.492 161.399L345.594 137.948C310.636 130.342 285.034 153.972 275.571 175.851C270.941 186.555 268.748 200.003 274.368 210.877C277.391 216.726 282.45 221.24 289.206 223.465C295.673 225.596 302.872 225.379 310.27 223.609L304.687 200.268ZM340.492 161.399C352.093 163.923 362.153 164.616 370.171 162.272C374.416 161.031 378.379 158.852 381.493 155.417C384.618 151.97 386.267 147.944 386.966 144.013C388.267 136.695 386.401 128.998 384.263 122.739C382.012 116.151 378.77 109.269 375.63 102.976L354.155 113.691C357.21 119.814 359.846 125.506 361.551 130.497C363.368 135.816 363.534 138.701 363.336 139.813C363.286 140.098 363.303 139.749 363.713 139.297C364.111 138.857 364.275 138.991 363.437 139.236C361.288 139.864 356.042 140.221 345.594 137.948L340.492 161.399ZM322.029 68.5996C316.188 63.5942 309.604 60.9138 302.777 60.5934C296.104 60.2802 290.104 62.2584 285.233 65.032C275.968 70.307 268.746 79.6331 266.269 88.1346L289.311 94.8483C289.545 94.0444 290.319 92.383 291.881 90.4479C293.394 88.5732 295.239 86.9524 297.108 85.8882C298.956 84.836 300.48 84.512 301.652 84.567C302.671 84.6148 304.252 84.973 306.412 86.8234L322.029 68.5996ZM266.269 88.1346C264.672 93.6141 261.901 106.501 270.912 116.408L288.666 100.259C288.858 100.469 288.634 100.477 288.585 99.4632C288.531 98.3224 288.763 96.7293 289.311 94.8483L266.269 88.1346ZM277.343 79.4998C245.576 80.683 196.02 81.4168 150.711 79.78C128.041 78.961 106.642 77.5553 89.1524 75.3556C71.023 73.0753 59.0016 70.1396 53.6361 67.1931L42.0837 88.2298C51.96 93.6534 68.308 96.9229 86.1574 99.168C104.647 101.493 126.836 102.933 149.845 103.764C195.894 105.428 246.061 104.682 278.236 103.483L277.343 79.4998ZM59.4583 74.6331C55.9059 61.2485 42.4356 54.2739 31.6769 53.2336C25.8 52.6653 19.0863 53.5889 13.1877 57.3472C7.00377 61.2873 2.85918 67.6314 1.41491 75.5613L25.0265 79.8617C25.3773 77.9358 26.0052 77.6381 26.0841 77.5878C26.4483 77.3558 27.4876 76.9404 29.3669 77.1222C31.2291 77.3022 33.1409 78.0157 34.5642 79.0058C35.2464 79.4804 35.6937 79.9331 35.9585 80.2778C36.0873 80.4454 36.1636 80.575 36.2067 80.6599C36.2489 80.7432 36.2604 80.7859 36.2615 80.7899L59.4583 74.6331ZM1.41491 75.5613C-0.370058 85.3618 3.75155 93.4643 9.90536 98.5872C15.6312 103.354 23.0269 105.629 29.7998 105.986C36.5263 106.341 44.4507 104.884 50.7532 99.9284C57.7313 94.4412 61.1139 85.8931 59.7454 76.0577L35.9744 79.3652C36.064 80.0094 36.0547 80.4405 36.0306 80.6917C36.007 80.937 35.967 81.0395 35.9653 81.0438C35.9643 81.0465 35.9751 81.0221 35.9939 80.9971C36.0098 80.976 35.9966 81.0009 35.9182 81.0625C35.4745 81.4114 33.8597 82.1671 31.0649 82.0195C28.3164 81.8745 26.2088 80.9316 25.2604 80.142C24.8639 79.812 24.8746 79.6865 24.9445 79.8601C25.0416 80.1012 24.9667 80.1899 25.0265 79.8617L1.41491 75.5613Z" fill="url(#paint0_linear_1387_546)" fill-opacity="0.6"/>
<g filter="url(#filter0_d_1387_546)">
<path d="M90.3696 169.568C90.5048 172.326 92.8503 174.452 95.6084 174.317C98.3665 174.182 100.493 171.836 100.358 169.078L90.3696 169.568ZM181.815 169.393C181.854 172.154 184.124 174.361 186.885 174.322C189.646 174.283 191.853 172.013 191.814 169.252L181.815 169.393ZM201.814 91.349C201.068 88.6903 198.308 87.1399 195.649 87.8861C192.99 88.6323 191.44 91.3925 192.186 94.0512L201.814 91.349ZM208.661 169.323L204.789 166.16L204.789 166.16L208.661 169.323ZM257.072 170.168C257.539 172.89 260.124 174.718 262.845 174.251C265.567 173.784 267.395 171.199 266.928 168.478L257.072 170.168ZM314.22 77.7115L317.623 74.0477C317.574 74.0025 317.524 73.9582 317.474 73.9149L314.22 77.7115ZM279.789 108.334L283.488 104.969L279.789 108.334ZM307.479 211.939L308.642 216.801L307.479 211.939ZM343.043 149.674L344.106 144.788L344.106 144.788L343.043 149.674ZM369.367 106.101C368.134 103.63 365.131 102.627 362.66 103.86C360.189 105.092 359.186 108.095 360.419 110.566L369.367 106.101ZM100.358 169.078C99.1406 144.248 99.7183 106.781 105.336 75.0816C108.15 59.1985 112.172 45.113 117.649 34.8394C123.165 24.4921 129.59 18.998 136.866 18.1132L135.659 8.18636C123.629 9.64928 114.981 18.5881 108.825 30.135C102.63 41.7558 98.3796 57.026 95.4892 73.3366C89.6965 106.025 89.131 144.297 90.3696 169.568L100.358 169.078ZM136.866 18.1132C143.694 17.283 150.061 21.1273 156.125 30.659C162.164 40.1521 167.05 54.1105 170.865 70.3626C178.467 102.758 181.437 142.582 181.815 169.393L191.814 169.252C191.43 142.05 188.429 101.439 180.6 68.0778C176.698 51.4516 171.503 36.2009 164.562 25.2915C157.647 14.4206 148.138 6.66891 135.659 8.18636L136.866 18.1132ZM192.186 94.0512C194.881 103.654 199.38 120.668 202.393 136.218C203.903 144.011 205.008 151.282 205.354 157.008C205.527 159.88 205.498 162.201 205.286 163.928C205.053 165.834 204.678 166.295 204.789 166.16L212.533 172.486C214.27 170.36 214.919 167.537 215.212 165.145C215.527 162.574 215.527 159.582 215.335 156.406C214.951 150.036 213.751 142.269 212.21 134.316C209.121 118.372 204.538 101.055 201.814 91.349L192.186 94.0512ZM204.789 166.16C204.736 166.224 204.94 165.945 205.437 165.656C205.993 165.332 207.123 164.896 208.536 165.242C209.888 165.573 210.631 166.412 210.916 166.808C211.193 167.195 211.26 167.462 211.236 167.385C211.077 166.877 210.864 165.081 211.023 161.735C211.323 155.425 212.811 145.879 215.657 135.955C218.511 125.999 222.62 116.065 227.955 108.732C233.307 101.375 239.314 97.3665 246 97.3665V87.3665C234.777 87.3665 226.146 94.2212 219.869 102.849C213.574 111.5 209.063 122.671 206.044 133.198C203.016 143.757 201.377 154.072 201.034 161.259C200.873 164.661 200.959 168.022 201.689 170.362C201.887 170.997 202.213 171.831 202.785 172.63C203.364 173.439 204.439 174.534 206.159 174.955C207.938 175.391 209.471 174.878 210.465 174.3C211.401 173.755 212.078 173.043 212.533 172.486L204.789 166.16ZM246 97.3665C248.775 97.3665 250.653 98.0046 251.999 98.8917C253.362 99.7893 254.534 101.177 255.5 103.235C257.526 107.553 258.286 114.022 258.246 122.074C258.206 130.032 257.416 138.638 256.853 147.128C256.307 155.363 255.957 163.665 257.072 170.168L266.928 168.478C266.043 163.319 266.275 156.171 266.831 147.79C267.37 139.664 268.203 130.489 268.245 122.124C268.287 113.851 267.587 105.454 264.553 98.9869C262.988 95.6531 260.729 92.6681 257.502 90.5415C254.258 88.4044 250.389 87.3665 246 87.3665V97.3665ZM276.091 111.698C280.528 116.576 286.979 118.165 293.051 117.864C299.163 117.562 305.546 115.351 310.841 111.773C316.131 108.198 320.706 102.995 322.569 96.4567C324.481 89.7455 323.336 82.31 318.37 74.922L310.071 80.501C313.604 85.7573 313.959 90.1799 312.952 93.7166C311.895 97.4264 309.13 100.86 305.242 103.488C301.358 106.113 296.722 107.67 292.557 107.877C288.352 108.085 285.266 106.924 283.488 104.969L276.091 111.698ZM310.818 81.3752C315.755 85.9607 320.435 95.4195 323.867 108.102C327.239 120.563 329.197 135.349 329.253 149.758C329.309 164.214 327.451 177.944 323.44 188.44C319.4 199.014 313.598 205.334 306.316 207.076L308.642 216.801C320.564 213.95 328.207 203.98 332.782 192.009C337.386 179.958 339.312 164.885 339.253 149.719C339.193 134.505 337.135 118.85 333.52 105.49C329.964 92.3499 324.685 80.6066 317.623 74.0477L310.818 81.3752ZM306.316 207.076C300.896 208.372 297.086 208.163 294.526 207.319C292.086 206.515 290.494 205.052 289.471 203.072C287.246 198.768 287.435 191.244 291.174 182.6C298.567 165.506 317.499 149.233 341.98 154.559L344.106 144.788C313.462 138.121 290.606 158.721 281.996 178.63C277.733 188.486 276.365 199.495 280.587 207.663C282.787 211.919 286.418 215.177 291.397 216.817C296.255 218.418 302.059 218.376 308.642 216.801L306.316 207.076ZM341.98 154.559C353.245 157.01 361.9 157.396 368.207 155.553C371.458 154.603 374.217 153.02 376.307 150.715C378.401 148.406 379.564 145.655 380.074 142.788C381.053 137.28 379.683 130.986 377.638 125.001C375.547 118.88 372.482 112.344 369.367 106.101L360.419 110.566C363.498 116.738 366.311 122.778 368.175 128.234C370.086 133.827 370.748 138.116 370.228 141.038C369.989 142.386 369.52 143.313 368.899 143.999C368.273 144.689 367.233 145.419 365.401 145.955C361.54 147.083 354.89 147.134 344.106 144.788L341.98 154.559ZM317.474 73.9149C312.707 69.8297 307.582 67.8266 302.449 67.5857C297.381 67.3478 292.686 68.8435 288.696 71.115C280.917 75.5446 274.928 83.4397 272.989 90.0928L282.59 92.8901C283.759 88.8776 287.986 83.027 293.644 79.8051C296.374 78.2509 299.204 77.4444 301.98 77.5747C304.693 77.702 307.734 78.7375 310.967 81.5081L317.474 73.9149ZM272.989 90.0928C271.455 95.3601 269.798 104.78 276.091 111.698L283.488 104.969C281.079 102.32 281.144 97.8544 282.59 92.8901L272.989 90.0928ZM277.604 86.4949C245.718 87.6826 195.983 88.42 150.459 86.7754C127.689 85.9529 106.06 84.5373 88.2789 82.3009C70.2311 80.0309 56.9478 76.9978 50.2666 73.3288L45.4532 82.0941C54.0138 86.7952 69.0999 89.9674 87.0309 92.2227C105.229 94.5115 127.187 95.9413 150.097 96.7689C195.931 98.4247 245.92 97.682 277.976 96.488L277.604 86.4949ZM52.6926 76.4288C50.151 66.8527 40.0104 61.0721 31.0031 60.2011C26.2922 59.7456 21.2335 60.5209 16.9491 63.2507C12.5458 66.0563 9.42695 70.6369 8.30162 76.8156L18.1398 78.6074C18.8095 74.9304 20.4631 72.8691 22.3226 71.6843C24.301 70.4238 26.9954 69.8602 30.0406 70.1547C36.5457 70.7837 41.9296 74.8588 43.0272 78.9941L52.6926 76.4288ZM8.30162 76.8156C7.03433 83.7737 9.87317 89.4523 14.3839 93.2073C18.7163 96.8139 24.5697 98.7004 30.1687 98.9959C35.7485 99.2904 41.8327 98.038 46.4264 94.4258C51.3016 90.5923 53.8639 84.5814 52.8122 77.0224L42.9076 78.4005C43.5069 82.7076 42.1162 85.0938 40.2451 86.565C38.0926 88.2576 34.6374 89.2179 30.6959 89.0098C26.7736 88.8028 23.1237 87.4714 20.7818 85.5219C18.6183 83.7208 17.612 81.505 18.1398 78.6074L8.30162 76.8156Z" fill="#404040"/>
</g>
<path d="M123.324 40.4546L121.545 53.469M149.997 40.4546V53.469M128.15 65.7179C131.622 67.9295 140.039 71.0257 145.932 65.7179" stroke="#404040" stroke-width="6" stroke-linecap="round"/>
<defs>
<filter id="filter0_d_1387_546" x="3.99866" y="7.99658" width="380.399" height="218.003" filterUnits="userSpaceOnUse" color-interpolation-filters="sRGB">
<feFlood flood-opacity="0" result="BackgroundImageFix"/>
<feColorMatrix in="SourceAlpha" type="matrix" values="0 0 0 0 0 0 0 0 0 0 0 0 0 0 0 0 0 0 127 0" result="hardAlpha"/>
<feOffset dy="4"/>
<feGaussianBlur stdDeviation="2"/>
<feComposite in2="hardAlpha" operator="out"/>
<feColorMatrix type="matrix" values="0 0 0 0 0 0 0 0 0 0 0 0 0 0 0 0 0 0 0.25 0"/>
<feBlend mode="normal" in2="BackgroundImageFix" result="effect1_dropShadow_1387_546"/>
<feBlend mode="normal" in="SourceGraphic" in2="effect1_dropShadow_1387_546" result="shape"/>
</filter>
<linearGradient id="paint0_linear_1387_546" x1="13" y1="113" x2="375.398" y2="113" gradientUnits="userSpaceOnUse">
<stop stop-color="#FF6666"/>
<stop offset="0.166667" stop-color="#F78E61"/>
<stop offset="0.336805" stop-color="#FFC83B"/>
<stop offset="0.498264" stop-color="#78D968"/>
<stop offset="0.65625" stop-color="#58D0E0"/>
<stop offset="0.828125" stop-color="#588EE0"/>
<stop offset="0.994792" stop-color="#C370E9"/>
</linearGradient>
</defs>
</svg>
